#!OML:ASF X:\für Bonn\!DataBase\2005_08_10_Bjorn_Final\c3d\bjorn.ASF
:FULLY-SPECIFIED
:DEGREES
385
root 11.7811 19.1469 -0.402284 127.706 -91.4956 -120.655
lowerback -9.19626 -0.782144 -1.55363
upperback -0.75479 -0.873959 -0.848403
thorax 4.38288 -0.46783 -0.120083
lowerneck 4.90421 -0.861944 5.53743
upperneck 15.2775 -1.15026 -4.19449
head 4.13709 -0.644285 -2.43767
rclavicle -7.96381e-015 -5.36719e-015
rhumerus -33.076 -8.20166 -82.3631
rradius 43.9477
rwrist -6.99754
rhand -14.5868 11.5747
rfingers 7.12502
rthumb 11.5632 -18.0863
lclavicle -7.96381e-015 -5.36719e-015
lhumerus -26.6677 -4.62313 89.8774
lradius 27.4703
lwrist -22.6266
lhand -24.1846 -12.6911
lfingers 7.12502
lthumb 2.29912 17.2763
rfemur -13.107 -17.9949 16.7067
rtibia 31.0259
rfoot -11.7145 30.4144
rtoes 16.243
lfemur -4.7943 6.68711 -11.6438
ltibia 23.4445
lfoot -14.5898 15.6562
ltoes -21.0969
386
root 11.7818 19.1511 -0.40738 126.04 -91.6173 -118.982
lowerback -9.06209 -0.776825 -1.62128
upperback -0.827709 -0.866018 -0.828453
thorax 4.23313 -0.464771 -0.0575505
lowerneck 4.78224 -0.859844 5.3199
upperneck 15.0337 -1.14173 -4.18582
head 4.06991 -0.647199 -2.39036
rclavicle -7.62836e-015 -9.93923e-015
rhumerus -33.0696 -8.57723 -82.4817
rradius 43.4889
rwrist -7.00165
rhand -15.1125 11.751
rfingers 7.12502
rthumb 11.0562 -17.9378
lclavicle -7.62836e-015 -9.93923e-015
lhumerus -26.3931 -5.23217 90.2835
lradius 27.3346
lwrist -22.8986
lhand -23.7586 -12.5315
lfingers 7.12502
lthumb 2.71051 17.431
rfemur -13.0783 -18.1109 16.5739
rtibia 30.9495
rfoot -11.544 30.5044
rtoes 16.5353
lfemur -4.92897 6.76864 -11.7889
ltibia 23.641
lfoot -14.5479 15.6235
ltoes -20.6338
387
root 11.7835 19.1567 -0.412655 124.434 -91.7774 -117.377
lowerback -8.92412 -0.784545 -1.73726
upperback -0.863113 -0.869736 -0.807054
thorax 4.12127 -0.468197 0.0317741
lowerneck 4.62883 -0.86263 5.1111
upperneck 14.7361 -1.13359 -4.21958
head 3.98955 -0.650191 -2.35867
rclavicle 5.28643e-015 8.34896e-015
rhumerus -32.9953 -8.91653 -82.599
rradius 43.0268
rwrist -7.01533
rhand -15.6233 11.9218
rfingers 7.12502
rthumb 10.5636 -17.7928
lclavicle 5.28643e-015 8.34896e-015
lhumerus -26.0863 -5.91959 90.6994
lradius 27.233
lwrist -23.1043
lhand -23.3951 -12.4929
lfingers 7.12502
lthumb 3.0615 17.4648
rfemur -13.0364 -18.2742 16.4023
rtibia 30.8614
rfoot -11.4199 30.5752
rtoes 16.6064
lfemur -5.07801 6.90678 -11.968
ltibia 23.8674
lfoot -14.5033 15.5384
ltoes -20.2601
388
root 11.7862 19.1628 -0.416681 123.897 -91.9324 -116.831
lowerback -8.777 -0.797345 -1.82126
upperback -0.907502 -0.884265 -0.782569
thorax 3.99476 -0.476204 0.105213
lowerneck 4.44101 -0.853641 4.8959
upperneck 14.4982 -1.11373 -4.24454
head 3.93845 -0.647934 -2.32469
rclavicle -7.01958e-015 -2.38542e-014
rhumerus -32.9563 -9.11198 -82.7345
rradius 42.5868
rwrist -7.07506
rhand -16.1358 12.019
rfingers 7.12502
rthumb 10.0691 -17.7201
lclavicle -7.01958e-015 -2.38542e-014
lhumerus -25.8351 -6.72014 91.1302
lradius 27.1683
lwrist -23.1597
lhand -23.1286 -12.4825
lfingers 7.12502
lthumb 3.31891 17.4714
rfemur -12.9882 -18.4372 16.2483
rtibia 30.7408
rfoot -11.2388 30.6696
rtoes 16.8019
lfemur -5.27405 6.90414 -12.1437
ltibia 24.1446
lfoot -14.5114 15.5676
ltoes -19.5466
389
root 11.7898 19.1707 -0.420216 123.645 -92.1076 -116.598
lowerback -8.59352 -0.802565 -1.91208
upperback -0.931612 -0.888202 -0.76455
thorax 3.86894 -0.478769 0.177391
lowerneck 4.31884 -0.866046 4.67185
upperneck 14.1529 -1.11898 -4.26059
head 3.83532 -0.656426 -2.28293
rclavicle -1.70209e-015 8.24956e-015
rhumerus -32.881 -9.278 -82.8688
rradius 42.1129
rwrist -7.11362
rhand -16.6271 12.1376
rfingers 7.12502
rthumb 9.59516 -17.6239
lclavicle -1.70209e-015 8.24956e-015
lhumerus -25.6094 -7.6477 91.5949
lradius 27.139
lwrist -23.1861
lhand -22.9078 -12.6366
lfingers 7.12502
lthumb 3.53215 17.3139
rfemur -12.894 -18.567 16.0743
rtibia 30.5908
rfoot -11.1366 30.6785
rtoes 16.7456
lfemur -5.48097 6.9869 -12.332
ltibia 24.4703
lfoot -14.4632 15.54
ltoes -18.9798
390
root 11.7951 19.1798 -0.423407 123.674 -92.27 -116.647
lowerback -8.39945 -0.795927 -1.97881
upperback -0.929711 -0.877655 -0.763912
thorax 3.76336 -0.473613 0.219595
lowerneck 4.11452 -0.894515 4.54186
upperneck 13.8289 -1.14344 -4.31404
head 3.7553 -0.670696 -2.27331
rclavicle 8.9655e-015 5.66536e-015
rhumerus -32.7943 -9.36189 -83.0495
rradius 41.6927
rwrist -7.22476
rhand -17.0749 12.2157
rfingers 7.12502
rthumb 9.16304 -17.5653
lclavicle 8.9655e-015 5.66536e-015
lhumerus -25.3543 -8.63748 92.0227
lradius 27.111
lwrist -23.225
lhand -22.6997 -13.0422
lfingers 7.12502
lthumb 3.7331 16.9049
rfemur -12.7784 -18.723 15.9115
rtibia 30.4016
rfoot -10.9394 30.7363
rtoes 16.8965
lfemur -5.73201 6.96279 -12.5129
ltibia 24.8562
lfoot -14.3964 15.7264
ltoes -18.6501
391
root 11.8008 19.1912 -0.426353 124.278 -92.4445 -117.268
lowerback -8.20294 -0.797664 -2.02956
upperback -0.919603 -0.879356 -0.775898
thorax 3.6647 -0.474207 0.238254
lowerneck 3.88984 -0.916816 4.39885
upperneck 13.5149 -1.16622 -4.31353
head 3.6833 -0.682837 -2.24343
rclavicle 1.06272e-014 -5.2181e-015
rhumerus -32.6718 -9.3518 -83.2638
rradius 41.2504
rwrist -7.34875
rhand -17.4789 12.2423
rfingers 7.12502
rthumb 8.77324 -17.5553
lclavicle 1.06272e-014 -5.2181e-015
lhumerus -25.1355 -9.63188 92.4198
lradius 27.152
lwrist -23.2142
lhand -22.4928 -13.4891
lfingers 7.12502
lthumb 3.93289 16.4543
rfemur -12.6505 -18.8073 15.7646
rtibia 30.1853
rfoot -10.8698 30.6521
rtoes 16.8076
lfemur -6.03173 7.04043 -12.6814
ltibia 25.2943
lfoot -14.2067 15.8415
ltoes -18.6334
